<?xml version="1.0" encoding="utf-8"?>
<!-- Generator: Adobe Illustrator 15.0.0, SVG Export Plug-In . SVG Version: 6.00 Build 0)  -->
<!DOCTYPE svg PUBLIC "-//W3C//DTD SVG 1.1//EN" "http://www.w3.org/Graphics/SVG/1.1/DTD/svg11.dtd">
<svg version="1.1" id="Layer_1" xmlns="http://www.w3.org/2000/svg" xmlns:xlink="http://www.w3.org/1999/xlink" x="0px" y="0px"
	 width="430.298px" height="185.489px" viewBox="0 0 430.298 185.489" enable-background="new 0 0 430.298 185.489"
	 xml:space="preserve">
<g>
	<g>
		<polygon fill="#FF931E" points="212.298,44.429 212.298,52.925 212.298,64.257 212.298,75.116 212.298,86.446 212.298,94.472 
			212.298,97.489 245.298,97.489 245.298,86.489 223.298,86.489 223.298,75.489 237.298,75.489 237.298,64.489 223.298,64.489 
			223.298,53.489 245.298,53.489 245.298,42.489 212.298,42.489 		"/>
		<polygon fill="#FF931E" points="251.298,53.489 265.298,53.489 265.298,97.489 276.298,97.489 276.298,53.489 289.298,53.489 
			289.298,42.489 251.298,42.489 		"/>
		<polygon fill="#FF931E" points="295.298,53.489 308.298,53.489 308.298,97.489 320.298,97.489 320.298,53.489 333.298,53.489 
			333.298,42.489 295.298,42.489 		"/>
		<path fill="#FF931E" d="M371.882,97.489h11.199l-18.057-55h-1.139h-10.061h-1.138l-17.13,55h11.198l4.164-13h16.572
			L371.882,97.489z M354.293,73.489l4.695-15.111l4.948,15.111H354.293z"/>
		<path fill="#FF931E" d="M205.251,79.497c-0.413-6.34-4.236-11.885-9.676-14.633c1.01-2.133,1.573-4.502,1.573-7
			c0-4.516-1.82-8.105-5.127-11.232c-3.128-2.955-7.245-4.143-11.634-4.143h-8.256h-4.234h-2.6v1.037v6.602v1.455v11.844v1.896
			v7.582v15.637v3.791v4.266v2.891h2.6h4.234h14.933c7.687-1,14.504-5.553,17.105-12.344c0.726-1.885,1.124-4.158,1.124-6.248
			c0-0.332-0.01-0.825-0.028-1.151C205.261,79.689,205.256,79.554,205.251,79.497z M176.298,54.489h3.977
			c2.896,0,5.231,2.305,5.231,4.959c0,2.686-2.384,5.041-5.231,5.041h-3.977V54.489z M187.44,88.489h-11.142v-13h11.142
			c3.359,0,6.184,3.207,6.184,6.426C193.624,85.101,190.86,88.489,187.44,88.489z"/>
		<path fill="#FF931E" d="M45.967,75.229c-0.216,0-0.669,0.012-0.669,0.037v11.578c0,0.025,0.453,0.127,0.669,0.127
			c31.143,0,56.537,25.518,56.6,56.518h11.653c-0.031-18-7.141-35.34-19.997-48.197C81.341,82.411,64.19,75.229,45.967,75.229z"/>
		<path fill="#FF931E" d="M45.967,96.175c-0.216,0-0.669-0.076-0.669-0.051v11.584c0,0.025,0.453,0.127,0.669,0.127
			c19.647,0,35.673,15.654,35.736,35.654h11.66C93.301,117.489,72.04,96.175,45.967,96.175z"/>
	</g>
	<path fill="#6699BB" d="M103.408,58.126c16.433-16.432,41.766-14.713,41.766-14.713s1.638,25.416-14.713,41.766
		c-9.069,9.07-22.478,10.367-29.947,2.896C93.042,80.604,94.338,67.196,103.408,58.126z"/>
	<g>
		<path fill="#6699BB" d="M132.011,138.751l3.382-4.322c1.82,1.748,4.08,3.807,7.149,3.807c3.017,0,4.756-2.059,4.756-4.631v-0.051
			c0-1.955-0.835-3.5-5.465-6.227c-5.982-3.447-8.535-6.277-8.535-10.959v-0.104c0-5.658,4.351-9.725,10.592-9.725
			c3.018,0,6.597,1.082,9.458,3.963l-3.413,4.27c-1.612-1.594-3.654-3.086-6.151-3.086c-2.705,0-4.486,1.748-4.486,4.064v0.051
			c0,2.162,0.888,3.602,6.194,6.793c5.722,3.395,7.806,6.225,7.806,10.701v0.104c0,5.814-4.557,9.982-10.54,9.982
			C139.17,143.382,135.445,142.146,132.011,138.751z"/>
		<path fill="#6699BB" d="M176.298,128.511l-9.639-22.021h6.086l6.502,15.18l6.502-15.18h5.982l-9.434,21.971v14.029h-6V128.511z"/>
		<path fill="#6699BB" d="M206.093,138.751l3.381-4.322c1.82,1.748,4.04,3.807,7.109,3.807c3.017,0,4.715-2.059,4.715-4.631v-0.051
			c0-1.955-0.836-3.5-5.466-6.227c-5.981-3.447-8.534-6.277-8.534-10.959v-0.104c0-5.658,4.391-9.725,10.633-9.725
			c3.017,0,6.617,1.082,9.478,3.963l-3.401,4.27c-1.613-1.594-3.691-3.086-6.187-3.086c-2.705,0-4.523,1.748-4.523,4.064v0.051
			c0,2.162,0.888,3.602,6.193,6.793c5.723,3.395,7.807,6.225,7.807,10.701v0.104c0,5.814-4.517,9.982-10.499,9.982
			C213.211,143.382,209.526,142.146,206.093,138.751z"/>
		<path fill="#6699BB" d="M252.298,112.489h-8v-6h21v6h-8v30h-5V112.489z"/>
		<path fill="#6699BB" d="M283.298,106.489h18v6h-13v10h11v5h-11v10h13v5h-18V106.489z"/>
		<path fill="#6699BB" d="M320.298,106.489h5.396l7.335,16.002l7.334-16.002h5.936v36h-6v-24.578l-7.218,16.578h-0.156
			l-7.626-16.525v24.525h-5V106.489z"/>
		<path fill="#6699BB" d="M363.152,138.751l3.381-4.322c1.82,1.748,4.51,3.807,7.58,3.807c3.017,0,5.186-2.059,5.186-4.631v-0.051
			c0-1.955-1.336-3.5-5.966-6.227c-5.981-3.447-9.034-6.277-9.034-10.959v-0.104c0-5.658,4.42-9.725,10.663-9.725
			c3.017,0,6.631,1.082,9.493,3.963l-3.394,4.27c-1.613-1.594-3.716-3.086-6.212-3.086c-2.705,0-4.549,1.748-4.549,4.064v0.051
			c0,2.162,0.888,3.602,6.193,6.793c5.723,3.395,7.807,6.225,7.807,10.701v0.104c0,5.814-4.488,9.982-10.469,9.982
			C370.24,143.382,366.584,142.146,363.152,138.751z"/>
	</g>
</g>
</svg>
