<?xml version="1.0" standalone="no"?>
<!DOCTYPE svg PUBLIC "-//W3C//DTD SVG 20010904//EN"
 "http://www.w3.org/TR/2001/REC-SVG-20010904/DTD/svg10.dtd">
<svg version="1.0" xmlns="http://www.w3.org/2000/svg"
 width="1296.000000pt" height="864.000000pt" viewBox="0 0 1296.000000 864.000000"
 preserveAspectRatio="xMidYMid meet">
<metadata>
Created by potrace 1.15, written by Peter Selinger 2001-2017
</metadata>
<g transform="translate(0.000000,864.000000) scale(0.100000,-0.100000)"
fill="#ff0000 " stroke="none">
<path d="M4720 8561 c-11 -16 -20 -36 -20 -44 0 -20 -29 -77 -61 -117 -15 -19
-77 -78 -139 -130 -62 -52 -130 -112 -152 -132 -35 -33 -153 -98 -176 -98 -5
0 -24 -8 -43 -17 -20 -10 -59 -17 -99 -17 -64 -1 -68 1 -117 41 -87 73 -106
156 -58 247 14 26 25 54 25 62 0 19 -24 18 -42 -3 -18 -20 -96 -181 -128 -262
-11 -30 -29 -66 -39 -80 -10 -14 -27 -44 -37 -66 -20 -44 -216 -243 -276 -281
-63 -40 -117 -54 -213 -54 -122 0 -159 12 -220 72 -27 27 -60 59 -72 71 -13
12 -32 41 -43 64 -23 50 -54 71 -76 52 -17 -14 -16 -88 5 -219 13 -81 7 -342
-9 -395 -5 -16 -21 -82 -35 -146 -25 -114 -56 -178 -118 -246 -30 -34 -132
-32 -207 3 -30 14 -57 28 -60 32 -3 4 -21 20 -40 35 -19 16 -53 44 -75 62
-130 111 -135 110 -135 -6 0 -75 24 -201 60 -315 16 -51 12 -337 -6 -408 -18
-70 -56 -158 -89 -201 -12 -16 -25 -40 -29 -51 -3 -12 -15 -29 -26 -39 -11
-10 -20 -23 -20 -30 0 -6 -16 -26 -35 -45 -40 -39 -102 -57 -225 -68 -57 -5
-76 -11 -78 -23 -2 -9 53 -73 135 -156 133 -135 140 -144 181 -239 49 -111 59
-143 73 -229 10 -60 5 -167 -11 -257 -16 -85 -116 -225 -185 -258 -49 -24
-203 -63 -221 -56 -7 3 -18 -2 -25 -10 -10 -12 -6 -21 22 -51 19 -19 57 -52
84 -73 68 -51 187 -162 226 -211 17 -22 35 -54 39 -72 4 -18 23 -66 40 -107
71 -162 100 -283 100 -406 0 -117 -44 -251 -108 -327 -39 -46 -72 -95 -72
-105 0 -22 -88 -89 -132 -100 -45 -12 -77 -36 -64 -50 4 -4 72 -7 149 -7 140
0 143 0 202 -32 33 -18 95 -65 137 -105 64 -61 78 -80 83 -113 4 -22 15 -62
25 -90 34 -93 53 -200 48 -272 -6 -75 -54 -193 -102 -249 -46 -56 -30 -68 45
-34 61 27 188 27 300 -1 46 -12 95 -27 109 -34 14 -7 42 -15 64 -19 93 -17
216 -101 216 -148 0 -10 4 -26 9 -36 88 -171 112 -285 91 -423 -15 -96 -37
-140 -87 -169 -29 -17 -33 -23 -23 -35 16 -19 44 -19 60 0 13 16 40 25 160 55
139 36 170 35 322 -3 63 -16 167 -73 176 -97 3 -8 20 -35 37 -60 18 -25 39
-61 48 -80 9 -19 25 -48 37 -65 29 -43 28 -152 -1 -189 -21 -27 -18 -46 8 -46
21 0 196 60 208 71 5 5 16 9 25 9 8 0 28 7 44 15 41 22 185 45 275 45 96 -1
173 -19 269 -65 62 -29 92 -53 169 -132 51 -52 93 -103 93 -111 0 -13 39 -104
69 -162 11 -21 58 -24 86 -6 14 9 34 38 45 64 34 78 43 92 75 128 30 34 32 34
130 40 64 4 116 2 145 -6 25 -7 75 -15 111 -19 47 -6 76 -15 100 -33 19 -14
42 -28 51 -31 25 -9 58 -67 58 -103 0 -16 4 -34 9 -40 6 -5 11 -29 13 -54 3
-40 6 -45 28 -48 23 -3 28 3 41 45 18 55 125 201 170 234 107 76 396 133 531
104 176 -37 275 -85 368 -179 85 -87 116 -98 108 -38 -3 21 -15 58 -26 82 -41
94 -42 108 -11 177 31 68 132 123 301 162 104 24 205 7 354 -59 90 -41 98 -40
90 11 -4 23 -16 69 -27 103 -48 142 -14 334 78 436 114 126 249 198 383 201
62 2 74 -1 96 -22 14 -13 32 -36 40 -52 9 -16 23 -27 35 -27 19 0 20 4 15 33
-15 72 -18 263 -7 350 29 218 119 333 351 449 83 42 87 43 178 42 75 -1 92 1
92 13 0 16 -60 137 -97 193 -27 43 -62 145 -63 183 0 67 23 122 82 195 32 40
68 90 79 111 24 47 60 75 150 120 55 27 149 50 207 51 17 0 15 35 -4 51 -8 7
-25 31 -36 52 -11 22 -37 65 -58 96 -21 31 -52 85 -70 120 -28 55 -32 73 -28
121 6 81 46 155 131 241 39 41 79 78 88 84 9 5 38 27 65 47 27 21 79 49 117
64 64 25 67 27 67 60 0 33 -3 35 -90 79 -49 25 -94 45 -100 45 -6 0 -34 17
-63 39 -43 32 -55 48 -71 95 -15 44 -17 61 -8 79 6 12 20 42 31 67 12 25 27
53 35 63 14 18 104 72 210 127 72 36 98 60 131 116 44 74 39 79 -90 88 -38 2
-126 19 -195 36 -69 18 -159 40 -200 49 -41 9 -85 22 -97 29 -14 8 -24 9 -28
2 -3 -6 -16 2 -29 17 -21 26 -66 203 -66 260 0 27 41 105 85 163 19 25 54 72
77 105 62 90 173 191 246 225 34 17 62 36 62 44 0 17 -51 36 -98 36 -22 0 -45
-9 -63 -24 -37 -31 -94 -41 -245 -41 l-121 0 -37 33 c-20 17 -41 32 -47 32
-16 0 -59 107 -59 148 1 51 24 143 50 196 24 51 141 172 214 222 27 19 77 48
112 65 46 21 64 35 64 49 0 32 -41 35 -91 7 -47 -26 -169 -53 -284 -63 -81 -7
-201 8 -291 36 -96 29 -124 46 -124 75 0 14 -4 26 -10 26 -5 1 -16 2 -22 3 -7
0 -29 33 -48 71 -19 39 -38 72 -42 75 -19 15 -39 194 -25 218 4 6 0 15 -9 20
-15 8 -15 13 -3 48 20 55 107 195 152 243 20 22 37 49 37 59 0 24 -24 35 -48
22 -220 -118 -342 -155 -497 -147 -119 6 -155 18 -216 69 -68 57 -89 107 -89
209 0 113 18 175 65 234 35 42 42 46 71 42 63 -10 93 11 57 39 -11 8 -13 13
-5 14 18 0 15 27 -4 34 -9 4 -33 -3 -52 -15 -20 -11 -56 -27 -81 -36 -24 -8
-56 -23 -70 -33 -51 -37 -137 -53 -246 -47 -126 6 -149 15 -176 69 -17 33 -20
53 -16 98 7 77 66 196 113 230 75 53 94 72 94 95 0 33 -25 38 -57 12 -26 -20
-45 -32 -90 -56 -16 -8 -181 -85 -238 -111 -11 -5 -40 -14 -65 -21 -25 -6 -51
-16 -59 -22 -7 -6 -45 -11 -85 -11 -60 0 -80 4 -131 31 -75 39 -93 67 -76 122
6 22 27 58 46 81 45 54 50 114 10 132 -26 12 -44 0 -160 -106 -27 -25 -54 -46
-60 -46 -5 -1 -28 -9 -50 -20 -22 -11 -50 -19 -62 -20 -12 0 -25 -4 -28 -10
-3 -5 -24 -10 -46 -10 -21 0 -67 -10 -101 -22 -50 -17 -88 -21 -179 -22 -114
-1 -116 -1 -151 29 l-36 30 1 90 c2 85 1 90 -18 89 -27 0 -115 -56 -272 -172
-204 -150 -350 -209 -456 -183 -69 18 -147 63 -190 110 l-34 38 5 120 c4 103
2 121 -11 126 -11 4 -23 -4 -37 -22z"/>
</g>
<g transform="translate(0.000000,864.000000) scale(0.100000,-0.100000)"
fill="#000000" stroke="none">
<path d="M4555 6505 c-721 -762 -1311 -1391 -1313 -1399 -2 -8 1 -17 6 -20 5
-3 151 -18 326 -33 l316 -27 0 -1698 0 -1698 1635 0 1635 0 0 1691 0 1690 148
-6 c81 -3 226 -7 322 -8 169 -2 175 -1 174 18 -1 26 -1907 2869 -1925 2873 -8
1 -604 -621 -1324 -1383z m2249 -71 c510 -762 926 -1387 924 -1389 -2 -2 -116
1 -253 7 -145 6 -961 14 -1940 17 -1689 6 -1690 6 -1952 31 l-262 24 67 73
c134 146 2477 2622 2482 2623 3 0 423 -624 934 -1386z m-871 -1421 l1177 -6 0
-1664 0 -1663 -635 0 -635 0 0 725 0 725 -470 0 -470 0 0 -725 0 -725 -480 0
-480 0 0 1670 0 1670 408 0 c224 0 937 -3 1585 -7z m-143 -2633 l0 -700 -420
0 -420 0 0 700 0 700 420 0 420 0 0 -700z"/>
<path d="M5960 4150 l0 -370 410 0 410 0 0 370 0 370 -410 0 -410 0 0 -370z
m770 0 l0 -320 -360 0 -360 0 0 320 0 320 360 0 360 0 0 -320z"/>
<path d="M4300 4140 l0 -370 410 0 410 0 0 370 0 370 -410 0 -410 0 0 -370z
m770 0 l0 -320 -360 0 -360 0 0 320 0 320 360 0 360 0 0 -320z"/>
</g>
</svg>
