<?xml version="1.0" standalone="no"?>
<!DOCTYPE svg PUBLIC "-//W3C//DTD SVG 20010904//EN"
 "http://www.w3.org/TR/2001/REC-SVG-20010904/DTD/svg10.dtd">
<svg version="1.0" xmlns="http://www.w3.org/2000/svg"
 width="400pt" height="800pt" viewBox="0 0 840.000000 859.000000"
 preserveAspectRatio="xMidYMid meet">

<g transform="translate(0.000000,859.000000) scale(0.100000,-0.100000)"
>
<path fill="#6996ba" stroke="020202" d="M3128 8533 c-43 -20 -78 -41 -78 -47 0 -6 54 -78 120 -161 66 -82
120 -155 120 -162 0 -7 -33 -29 -72 -49 l-73 -37 35 -29 c56 -47 386 -295 409
-307 12 -7 21 -9 21 -6 0 13 -35 72 -107 184 -42 63 -77 121 -80 127 -3 7 21
24 56 39 34 15 61 32 61 36 0 10 -272 393 -303 427 -11 12 -23 22 -26 21 -3 0
-41 -16 -83 -36z"/>
<path fill="#6996ba" d="M5178 8543 c-24 -27 -115 -150 -246 -335 l-62 -88 60 -30 c33 -17 60
-35 60 -41 0 -5 -38 -69 -83 -142 -99 -156 -111 -177 -99 -177 25 0 455 336
450 351 -2 6 -32 23 -67 37 -36 15 -66 32 -68 37 -2 6 55 84 127 175 72 90
129 164 127 166 -3 3 -167 74 -171 74 -1 0 -14 -12 -28 -27z"/>
<path fill="#67e329" d="M4032 7805 c-200 -44 -386 -201 -483 -409 -26 -55 -33 -86 -40 -176
-5 -63 -5 -147 0 -196 8 -75 16 -101 61 -193 45 -90 66 -118 139 -192 69 -68
103 -94 171 -127 116 -57 184 -73 310 -73 169 0 303 48 433 156 278 230 338
624 141 921 -74 112 -206 217 -324 259 -122 44 -288 56 -408 30z"/>
<path fill="#fc962b" d="M2983 7286 c-61 -20 -127 -61 -158 -98 -40 -48 -172 -320 -452 -938
-243 -534 -271 -614 -253 -710 27 -141 137 -246 269 -257 64 -5 180 23 730
177 179 49 330 90 336 90 21 0 25 -213 25 -1211 0 -914 -1 -960 -19 -1020 -11
-35 -60 -208 -110 -384 -49 -176 -137 -486 -195 -690 -271 -956 -364 -1292
-432 -1555 -34 -128 -38 -159 -39 -265 0 -111 2 -124 28 -176 122 -249 498
-294 703 -84 47 49 54 63 92 182 58 184 134 461 287 1048 48 182 95 362 105
400 10 39 44 167 75 285 126 475 217 813 224 832 6 17 12 4 28 -58 32 -126
340 -1296 377 -1434 19 -69 53 -197 76 -285 161 -611 238 -865 279 -922 137
-190 462 -185 654 9 71 72 94 113 108 198 8 54 6 73 -35 232 -54 212 -183 666
-372 1311 -19 64 -50 171 -69 237 -19 66 -51 175 -71 243 -20 67 -87 297 -150
512 l-114 389 0 1103 c0 1004 1 1103 16 1103 9 0 149 -37 312 -81 784 -215
760 -210 862 -163 115 53 202 194 184 299 -19 111 -143 405 -483 1137 -218
470 -235 495 -380 543 -182 60 -401 -109 -401 -310 0 -60 44 -175 195 -515
105 -236 138 -316 133 -329 -3 -8 -98 17 -603 158 -278 77 -328 85 -540 86
-121 0 -212 -5 -250 -13 -127 -28 -272 -66 -583 -153 -178 -50 -326 -88 -329
-85 -6 6 26 82 147 351 177 390 193 434 188 515 -6 79 -32 140 -86 201 -74 83
-214 126 -309 95z m1317 -1002 c46 -10 53 -34 38 -139 l-13 -90 -114 -3 c-63
-1 -118 1 -124 7 -8 8 -37 173 -37 214 0 15 12 17 109 17 60 0 123 -3 141 -6z
m-9 -271 c16 -16 37 -289 84 -1083 8 -140 17 -293 21 -340 l6 -85 -86 -92
c-48 -50 -96 -95 -107 -98 -23 -8 -67 30 -160 136 l-49 56 30 474 c45 709 68
1021 77 1030 22 21 164 22 184 2z"/>
</g>
</svg>
