<?xml version="1.0" standalone="no"?>
<!DOCTYPE svg PUBLIC "-//W3C//DTD SVG 20010904//EN"
 "http://www.w3.org/TR/2001/REC-SVG-20010904/DTD/svg10.dtd">
<svg version="1.0" xmlns="http://www.w3.org/2000/svg"
 width="255.000000pt" height="239.000000pt" viewBox="0 0 255.000000 239.000000"
 preserveAspectRatio="xMidYMid meet">
<metadata>
Created by potrace 1.15, written by Peter Selinger 2001-2017
</metadata>
<g transform="translate(0.000000,239.000000) scale(0.100000,-0.100000)"
fill="#000000" stroke="none">
<path d="M860 1881 c-5 -11 -10 -43 -10 -71 0 -43 4 -55 23 -71 18 -14 27 -35
35 -88 7 -38 12 -86 12 -106 0 -62 90 -165 144 -165 9 0 16 -7 16 -15 0 -9 -9
-15 -23 -15 -16 0 -31 -14 -53 -47 -49 -78 -77 -174 -81 -288 -2 -55 -5 -135
-7 -177 -2 -69 -1 -78 15 -78 15 0 17 17 21 168 5 176 22 257 68 327 11 17 29
44 41 62 11 18 29 35 40 38 25 8 137 -4 162 -16 11 -6 17 -6 17 1 0 11 118 14
168 4 40 -8 50 -37 64 -184 12 -131 11 -116 7 -316 -3 -130 -2 -153 13 -167 9
-9 21 -17 26 -17 6 0 13 65 17 148 5 118 4 167 -10 247 -10 60 -15 120 -11
151 5 41 3 53 -9 58 -8 3 -15 17 -15 31 0 14 -7 28 -15 31 -22 9 -18 24 5 24
34 0 65 41 98 129 27 69 32 97 32 166 0 82 0 83 28 88 34 7 52 41 52 101 0 60
-16 71 -80 56 l-50 -12 0 -67 c0 -37 5 -72 11 -78 19 -19 5 -161 -24 -237 -34
-90 -52 -109 -94 -101 -21 4 -33 2 -33 -5 0 -25 -373 9 -423 38 -48 28 -83 97
-90 179 -4 39 -9 78 -12 85 -4 9 4 19 20 26 31 14 45 48 45 108 0 49 -6 54
-64 57 -20 1 -36 5 -36 10 0 15 -30 6 -40 -12z"/>
<path d="M1267 1893 c-4 -3 -7 -13 -7 -21 0 -11 8 -13 30 -9 24 5 37 0 65 -24
30 -26 35 -37 35 -73 -1 -39 -10 -61 -69 -168 -37 -67 -54 -72 -95 -32 -23 24
-26 34 -26 96 0 70 15 155 31 173 16 17 10 47 -8 43 -30 -5 -51 -91 -52 -205
-1 -96 1 -103 25 -133 24 -28 32 -31 72 -28 42 3 48 7 74 48 62 99 78 142 78
209 0 58 -2 65 -34 97 -27 27 -42 34 -73 34 -22 0 -43 -3 -46 -7z"/>
</g>
</svg>
